#!OML:ASF E:\Steps\Project 1\Capture day 1\Session 2\Subject.ASF
:FULLY-SPECIFIED
:DEGREES
579
root 9.12313 16.3397 2.38006 -150.81 -0.56902 179.396
lowerback -28.7451 -1.59207 -5.75971
upperback -4.64326 -1.52939 -0.166813
thorax 10.7597 -1.44118 2.47423
lowerneck -3.08579 -1.00678 -2.46847
upperneck 10.7717 -1.31128 4.76766
head 4.15516 -0.381105 1.99698
rclavicle 2.18663e-015 1.78906e-014
rhumerus -26.9657 -7.01078 -88.4663
rradius 32.0916
rwrist 0.0329168
rhand -6.66698 -55.9511
rfingers 7.12502
rthumb 19.1911 -805.024
lclavicle 2.18663e-015 1.78906e-014
lhumerus -23.6003 -11.5762 90.7214
lradius 24.4959
lwrist -3.04899
lhand -23.1555 -10.5882
lfingers 7.12502
lthumb 3.29296 19.3661
rfemur -26.149 8.04202 16.7449
rtibia 7.45544
rfoot -18.6949 -10.5936
rtoes -25.4038
lfemur -26.6727 -7.00876 -18.519
ltibia 8.17609
lfoot -8.05505 4.4387
ltoes -31.0125
580
root 9.12446 16.3391 2.37756 -150.748 -0.537772 179.358
lowerback -28.8253 -1.58441 -5.77314
upperback -4.63261 -1.5104 -0.177459
thorax 10.8107 -1.43483 2.47489
lowerneck -3.01681 -1.00205 -2.53262
upperneck 10.7416 -1.30604 4.84098
head 4.13277 -0.378191 2.03336
rclavicle 6.41081e-015 1.98785e-014
rhumerus -27.052 -7.07668 -88.3623
rradius 31.96
rwrist -0.137829
rhand -7.79476 -55.5279
rfingers 7.12502
rthumb 18.1063 -804.705
lclavicle 6.41081e-015 1.98785e-014
lhumerus -23.6718 -11.3098 90.675
lradius 24.3091
lwrist -3.17938
lhand -23.0317 -9.99919
lfingers 7.12502
lthumb 3.41246 19.9532
rfemur -26.2403 7.9642 16.711
rtibia 7.49447
rfoot -18.7194 -10.5528
rtoes -25.712
lfemur -26.7278 -7.02202 -18.5596
ltibia 8.16916
lfoot -8.05599 4.44448
ltoes -30.7944
581
root 9.12657 16.3382 2.37352 -150.7 -0.465477 179.272
lowerback -28.8568 -1.59694 -5.85964
upperback -4.64849 -1.50373 -0.192002
thorax 10.808 -1.4372 2.50993
lowerneck -2.94037 -1.00067 -2.60988
upperneck 10.7273 -1.3036 4.90848
head 4.1148 -0.377045 2.07025
rclavicle -3.67752e-015 3.97569e-015
rhumerus -27.1514 -7.2427 -88.2179
rradius 31.6643
rwrist -0.026043
rhand -7.20784 -55.7607
rfingers 7.12502
rthumb 18.6709 -804.885
lclavicle -3.67752e-015 3.97569e-015
lhumerus -23.9314 -11.2199 90.6843
lradius 24.3058
lwrist -3.00906
lhand -23.0488 -9.99005
lfingers 7.12502
lthumb 3.39601 19.9626
rfemur -26.2958 7.98248 16.5838
rtibia 7.49582
rfoot -18.7249 -10.5834
rtoes -26.1565
lfemur -26.7427 -7.17243 -18.6214
ltibia 8.13459
lfoot -8.11957 4.61773
ltoes -30.7063
582
root 9.12977 16.3388 2.37095 -150.673 -0.494065 179.227
lowerback -28.829 -1.62154 -5.88536
upperback -4.6433 -1.52739 -0.186988
thorax 10.8027 -1.44804 2.52223
lowerneck -2.93082 -1.01093 -2.69997
upperneck 10.7104 -1.31945 4.99094
head 4.1105 -0.385244 2.11416
rclavicle -4.47266e-016 -7.15625e-015
rhumerus -27.1004 -7.64137 -88.0382
rradius 31.1987
rwrist 0.377846
rhand -5.94765 -55.6204
rfingers 7.12502
rthumb 19.8827 -804.623
lclavicle -4.47266e-016 -7.15625e-015
lhumerus -24.1569 -11.2188 90.6696
lradius 24.3056
lwrist -2.71715
lhand -23.1823 -10.4479
lfingers 7.12502
lthumb 3.26703 19.5068
rfemur -26.3206 8.05975 16.5164
rtibia 7.53023
rfoot -18.7369 -10.6871
rtoes -26.1251
lfemur -26.7983 -7.28241 -18.6113
ltibia 8.18704
lfoot -8.20198 4.68929
ltoes -30.6324
583
root 9.1345 16.3412 2.36637 -150.71 -0.633022 179.224
lowerback -28.7612 -1.67163 -5.85741
upperback -4.62133 -1.59779 -0.160296
thorax 10.8009 -1.47616 2.5117
lowerneck -2.90645 -1.00793 -2.75729
upperneck 10.6868 -1.31794 5.06082
head 4.09935 -0.384154 2.14833
rclavicle -6.4605e-016 1.03368e-014
rhumerus -27.1489 -7.91977 -87.9261
rradius 30.917
rwrist 0.507501
rhand -1.98295 -60.5133
rfingers 7.12502
rthumb 23.6897 -809.073
lclavicle -6.4605e-016 1.03368e-014
lhumerus -24.2986 -11.1215 90.607
lradius 24.1697
lwrist -2.61889
lhand -23.1625 -10.7255
lfingers 7.12502
lthumb 3.28617 19.2289
rfemur -26.2027 8.03478 16.578
rtibia 7.47527
rfoot -18.7235 -10.774
rtoes -25.8154
lfemur -26.7688 -7.30994 -18.5562
ltibia 8.20973
lfoot -8.20871 4.60169
ltoes -31.0512
584
root 9.13961 16.3439 2.3603 -150.762 -0.735139 179.192
lowerback -28.6741 -1.72696 -5.88553
upperback -4.61552 -1.66179 -0.150223
thorax 10.7703 -1.50385 2.51758
lowerneck -2.8523 -1.00864 -2.76855
upperneck 10.6733 -1.32083 5.10673
head 4.08496 -0.383825 2.1656
rclavicle -7.50412e-015 1.59028e-014
rhumerus -27.2859 -8.12093 -87.8433
rradius 30.722
rwrist 0.496298
rhand -6.02411 -55.2873
rfingers 7.12502
rthumb 19.8092 -804.298
lclavicle -7.50412e-015 1.59028e-014
lhumerus -24.502 -11.0846 90.5513
lradius 24.1116
lwrist -2.40854
lhand -22.8768 -10.3308
lfingers 7.12502
lthumb 3.56208 19.6192
rfemur -26.049 8.0433 16.5891
rtibia 7.36418
rfoot -18.718 -10.8914
rtoes -25.6363
lfemur -26.6633 -7.33765 -18.5523
ltibia 8.13391
lfoot -8.10289 4.56695
ltoes -31.608
